<?xml version="1.0" encoding="utf-8" standalone="no"?>
<!DOCTYPE svg PUBLIC "-//W3C//DTD SVG 1.1//EN"
  "http://www.w3.org/Graphics/SVG/1.1/DTD/svg11.dtd">
<svg xmlns:xlink="http://www.w3.org/1999/xlink" width="1026.796363pt" height="428.4pt" viewBox="0 0 1026.796363 428.4" xmlns="http://www.w3.org/2000/svg" version="1.1">
 <metadata>
  <rdf:RDF xmlns:dc="http://purl.org/dc/elements/1.1/" xmlns:cc="http://creativecommons.org/ns#" xmlns:rdf="http://www.w3.org/1999/02/22-rdf-syntax-ns#">
   <cc:Work>
    <dc:type rdf:resource="http://purl.org/dc/dcmitype/StillImage"/>
    <dc:date>2026-06-30T16:15:10.164267</dc:date>
    <dc:format>image/svg+xml</dc:format>
    <dc:creator>
     <cc:Agent>
      <dc:title>Matplotlib v3.10.9, https://matplotlib.org/</dc:title>
     </cc:Agent>
    </dc:creator>
   </cc:Work>
  </rdf:RDF>
 </metadata>
 <defs>
  <style type="text/css">*{stroke-linejoin: round; stroke-linecap: butt}</style>
 </defs>
 <g id="figure_1">
  <g id="patch_1">
   <path d="M 0 428.4 
L 1026.796363 428.4 
L 1026.796363 -0 
L 0 -0 
z
" style="fill: #ffffff"/>
  </g>
  <g id="axes_1">
   <g id="patch_2">
    <path d="M 41.205636 141.336 
L 132.535058 141.336 
Q 144.194134 141.336 144.194134 136.368 
L 144.194134 126.432 
Q 144.194134 121.464 132.535058 121.464 
L 41.205636 121.464 
Q 29.546561 121.464 29.546561 126.432 
L 29.546561 136.368 
Q 29.546561 141.336 41.205636 141.336 
z
" style="fill: #f8fafc; stroke: #5a6b7b; stroke-width: 0.9; stroke-linejoin: miter"/>
   </g>
   <g id="patch_3">
    <path d="M 54.80789 167.004 
L 118.932804 167.004 
Q 130.591879 167.004 130.591879 162.036 
L 130.591879 152.1 
Q 130.591879 147.132 118.932804 147.132 
L 54.80789 147.132 
Q 43.148815 147.132 43.148815 152.1 
L 43.148815 162.036 
Q 43.148815 167.004 54.80789 167.004 
z
" style="fill: #f8fafc; stroke: #5a6b7b; stroke-width: 0.9; stroke-linejoin: miter"/>
   </g>
   <g id="patch_4">
    <path d="M 67.438555 192.672 
L 106.302139 192.672 
Q 117.961214 192.672 117.961214 187.704 
L 117.961214 177.768 
Q 117.961214 172.8 106.302139 172.8 
L 67.438555 172.8 
Q 55.77948 172.8 55.77948 177.768 
L 55.77948 187.704 
Q 55.77948 192.672 67.438555 192.672 
z
" style="fill: #f8fafc; stroke: #5a6b7b; stroke-width: 0.9; stroke-linejoin: miter"/>
   </g>
   <g id="patch_5">
    <path d="M 201.51792 100.35 
L 415.267632 135.54 
L 415.267632 210.06 
L 201.51792 245.25 
z
" style="fill: #eaf1f8; stroke: #2f5e8a; stroke-width: 2.2; stroke-linejoin: miter"/>
   </g>
   <g id="patch_6">
    <path d="M 469.67665 206.541 
L 585.295812 206.541 
Q 596.954887 206.541 596.954887 201.573 
L 596.954887 144.027 
Q 596.954887 139.059 585.295812 139.059 
L 469.67665 139.059 
Q 458.017574 139.059 458.017574 144.027 
L 458.017574 201.573 
Q 458.017574 206.541 469.67665 206.541 
z
" style="fill: #ffffff; stroke: #3b5b92; stroke-width: 1.8; stroke-linejoin: miter"/>
   </g>
   <g id="patch_7">
    <path d="M 654.278674 215.856 
L 782.528501 215.856 
Q 794.187576 215.856 794.187576 210.888 
L 794.187576 134.712 
Q 794.187576 129.744 782.528501 129.744 
L 654.278674 129.744 
Q 642.619598 129.744 642.619598 134.712 
L 642.619598 210.888 
Q 642.619598 215.856 654.278674 215.856 
z
" style="fill: #eaf6f4; stroke: #2a7f7f; stroke-width: 2; stroke-linejoin: miter"/>
   </g>
   <g id="patch_8">
    <path d="M 24.688613 387.666 
L 363.773383 387.666 
Q 375.432458 387.666 375.432458 382.698 
L 375.432458 316.872 
Q 375.432458 311.904 363.773383 311.904 
L 24.688613 311.904 
Q 13.029538 311.904 13.029538 316.872 
L 13.029538 382.698 
Q 13.029538 387.666 24.688613 387.666 
z
" style="fill: #ffffff; stroke-dasharray: 5.92,2.56; stroke-dashoffset: 0; stroke: #c24a3a; stroke-width: 1.6; stroke-linejoin: miter"/>
   </g>
   <g id="patch_9">
    <path d="M 421.09717 387.666 
L 1007.937288 387.666 
Q 1019.596363 387.666 1019.596363 382.698 
L 1019.596363 316.872 
Q 1019.596363 311.904 1007.937288 311.904 
L 421.09717 311.904 
Q 409.438094 311.904 409.438094 316.872 
L 409.438094 382.698 
Q 409.438094 387.666 421.09717 387.666 
z
" style="fill: #fbf4ec; stroke: #d98a3d; stroke-width: 1.6; stroke-linejoin: miter"/>
   </g>
   <g id="line2d_1">
    <path d="M 386.119944 390.978 
L 386.119944 308.592 
" style="fill: none; stroke-dasharray: 1.5,2.475; stroke-dashoffset: 0; stroke: #c24a3a; stroke-width: 1.5"/>
   </g>
   <g id="text_1">
    <text style="font-weight: 700; font-size: 14px; font-family: 'Times New Roman', 'DejaVu Serif', serif; text-anchor: start; fill: #1a2332" x="18.859075" y="27.039375" transform="rotate(-0 18.859075 27.039375)">The forecast admissibility gate</text>
   </g>
   <g id="text_2">
    <text style="font-size: 8.5px; font-family: 'Times New Roman', 'DejaVu Serif', serif; text-anchor: start; fill: #667085" x="18.859075" y="46.222188" transform="rotate(-0 18.859075 46.222188)">How a speculative request stock becomes a binding, socialized capacity cost — before the load is built or its retail incidence decided.</text>
   </g>
   <g id="text_3">
    <text style="font-weight: 700; font-size: 8px; font-family: 'Times New Roman', 'DejaVu Serif', serif; fill: #5a6b7b" transform="translate(67.315972 76.0805)">Speculative</text>
    <text style="font-weight: 700; font-size: 8px; font-family: 'Times New Roman', 'DejaVu Serif', serif; fill: #5a6b7b" transform="translate(64.387222 84.14875)">request stock</text>
   </g>
   <g id="text_4">
    <text style="font-size: 7px; font-family: 'Times New Roman', 'DejaVu Serif', serif; text-anchor: middle; fill: #1a2332" x="86.870347" y="133.081641" transform="rotate(-0 86.870347 133.081641)">queue ~70 GW</text>
   </g>
   <g id="text_5">
    <text style="font-size: 7px; font-family: 'Times New Roman', 'DejaVu Serif', serif; text-anchor: middle; fill: #1a2332" x="86.870347" y="158.749641" transform="rotate(-0 86.870347 158.749641)">≈ 3× DOM peak</text>
   </g>
   <g id="text_6">
    <text style="font-size: 7px; font-family: 'Times New Roman', 'DejaVu Serif', serif; text-anchor: middle; fill: #1a2332" x="86.870347" y="184.417641" transform="rotate(-0 86.870347 184.417641)">~2–3 GW/mo</text>
   </g>
   <g id="patch_10">
    <path d="M 156.882914 172.8 
Q 176.254936 172.8 194.061711 172.8 
" style="fill: none; stroke: #667085; stroke-width: 1.4; stroke-linecap: round"/>
    <path d="M 190.461711 171 
L 194.061711 172.8 
L 190.461711 174.6 
" style="fill: none; stroke: #667085; stroke-width: 1.4; stroke-linecap: round"/>
   </g>
   <g id="text_7">
    <text style="font-weight: 700; font-size: 9.5px; font-family: 'Times New Roman', 'DejaVu Serif', serif; text-anchor: middle; fill: #2f5e8a" x="308.392776" y="75.547891" transform="rotate(-0 308.392776 75.547891)">FORECAST ADMISSIBILITY GATE</text>
   </g>
   <g id="text_8">
    <text style="font-weight: 700; font-size: 7.2px; font-family: 'Times New Roman', 'DejaVu Serif', serif; text-anchor: middle; fill: #2f5e8a" x="298.67688" y="133.999875" transform="rotate(-0 298.67688 133.999875)">  Firmness test</text>
   </g>
   <g id="text_9">
    <text style="font-size: 6.4px; font-family: 'Times New Roman', 'DejaVu Serif', serif; text-anchor: middle; fill: #5a6b7b" x="298.67688" y="150.748" transform="rotate(-0 298.67688 150.748)">ESO/CC-firm load only</text>
   </g>
   <g id="text_10">
    <text style="font-weight: 700; font-size: 7.2px; font-family: 'Times New Roman', 'DejaVu Serif', serif; text-anchor: middle; fill: #2f5e8a" x="298.67688" y="158.011875" transform="rotate(-0 298.67688 158.011875)">  Utilization derate</text>
   </g>
   <g id="text_11">
    <text style="font-size: 6.4px; font-family: 'Times New Roman', 'DejaVu Serif', serif; text-anchor: middle; fill: #5a6b7b" x="298.67688" y="174.76" transform="rotate(-0 298.67688 174.76)">70% default, ramp ≥ 36 mo</text>
   </g>
   <g id="text_12">
    <text style="font-weight: 700; font-size: 7.2px; font-family: 'Times New Roman', 'DejaVu Serif', serif; text-anchor: middle; fill: #2f5e8a" x="298.67688" y="182.023875" transform="rotate(-0 298.67688 182.023875)">  Duplication filter</text>
   </g>
   <g id="text_13">
    <text style="font-size: 6.4px; font-family: 'Times New Roman', 'DejaVu Serif', serif; text-anchor: middle; fill: #5a6b7b" x="298.67688" y="198.772" transform="rotate(-0 298.67688 198.772)">unsupported dups removed</text>
   </g>
   <g id="text_14">
    <text style="font-weight: 700; font-size: 7.2px; font-family: 'Times New Roman', 'DejaVu Serif', serif; text-anchor: middle; fill: #2f5e8a" x="298.67688" y="206.035875" transform="rotate(-0 298.67688 206.035875)">  Ramp schedule</text>
   </g>
   <g id="text_15">
    <text style="font-size: 6.4px; font-family: 'Times New Roman', 'DejaVu Serif', serif; text-anchor: middle; fill: #5a6b7b" x="298.67688" y="222.784" transform="rotate(-0 298.67688 222.784)">≥ 36-month in-service</text>
   </g>
   <g id="text_16">
    <text style="font-style: italic; font-size: 6.8px; font-family: 'Times New Roman', 'DejaVu Serif', serif; text-anchor: middle; fill: #c24a3a" x="308.392776" y="265.70375" transform="rotate(-0 308.392776 265.70375)">DOM queue ~70 GW  →  16.6 GW admitted</text>
   </g>
   <g id="patch_11">
    <path d="M 421.151489 172.8 
Q 439.554149 172.8 455.944347 172.8 
" style="fill: none; stroke: #2f5e8a; stroke-width: 1.8; stroke-linecap: round"/>
    <path d="M 452.344347 171 
L 455.944347 172.8 
L 452.344347 174.6 
" style="fill: none; stroke: #2f5e8a; stroke-width: 1.8; stroke-linecap: round"/>
   </g>
   <g id="text_17">
    <text style="font-weight: 700; font-size: 7.8px; font-family: 'Times New Roman', 'DejaVu Serif', serif; fill: #3b5b92" transform="translate(499.423293 163.136212)">Binding capacity</text>
    <text style="font-weight: 700; font-size: 7.8px; font-family: 'Times New Roman', 'DejaVu Serif', serif; fill: #3b5b92" transform="translate(510.799715 171.163631)">obligation</text>
   </g>
   <g id="text_18">
    <text style="font-size: 6.8px; font-family: 'Times New Roman', 'DejaVu Serif', serif; fill: #1a2332" transform="translate(508.417012 187.426888)">priced 3 years</text>
    <text style="font-size: 6.8px; font-family: 'Times New Roman', 'DejaVu Serif', serif; fill: #1a2332" transform="translate(506.619793 194.5603)">forward (BRA)</text>
   </g>
   <g id="patch_12">
    <path d="M 598.952386 172.8 
Q 617.355046 172.8 633.745244 172.8 
" style="fill: none; stroke: #3b5b92; stroke-width: 1.8; stroke-linecap: round"/>
    <path d="M 630.145244 171 
L 633.745244 172.8 
L 630.145244 174.6 
" style="fill: none; stroke: #3b5b92; stroke-width: 1.8; stroke-linecap: round"/>
   </g>
   <g id="text_19">
    <text style="font-weight: 700; font-size: 7.8px; font-family: 'Times New Roman', 'DejaVu Serif', serif; text-anchor: middle; fill: #2a7f7f" x="718.403587" y="153.012984" transform="rotate(-0 718.403587 153.012984)">Wholesale wedge</text>
   </g>
   <g id="text_20">
    <text style="font-weight: 700; font-size: 12px; font-family: 'Times New Roman', 'DejaVu Serif', serif; text-anchor: middle; fill: #2a7f7f" x="718.403587" y="173.833687" transform="rotate(-0 718.403587 173.833687)">USD 21.26 B</text>
   </g>
   <g id="text_21">
    <text style="font-size: 7px; font-family: 'Times New Roman', 'DejaVu Serif', serif; fill: #1a2332" transform="translate(695.428275 187.370031)">= 45.0% of PJM</text>
    <text style="font-size: 7px; font-family: 'Times New Roman', 'DejaVu Serif', serif; fill: #1a2332" transform="translate(694.792806 194.700125)">capacity revenue</text>
   </g>
   <g id="patch_13">
    <path d="M 718.403587 216.198313 
Q 718.403587 256.014209 718.403587 294.264858 
" style="fill: none; stroke: #2a7f7f; stroke-width: 1.4; stroke-linecap: round"/>
    <path d="M 720.203587 290.664858 
L 718.403587 294.264858 
L 716.603587 290.664858 
z
" style="fill: #2a7f7f; stroke: #2a7f7f; stroke-width: 1.4; stroke-linecap: round"/>
   </g>
   <g id="text_22">
    <text style="font-weight: 700; font-size: 7.4px; font-family: 'Times New Roman', 'DejaVu Serif', serif; text-anchor: start; fill: #1a2332" x="807.78983" y="133.058641" transform="rotate(-0 807.78983 133.058641)">Three measurement axes:</text>
   </g>
   <g id="text_23">
    <text style="font-weight: 700; font-size: 7.2px; font-family: 'Times New Roman', 'DejaVu Serif', serif; text-anchor: start; fill: #2f5e8a" x="807.78983" y="155.831062" transform="rotate(-0 807.78983 155.831062)">§3.1 Who pays?</text>
   </g>
   <g id="text_24">
    <text style="font-size: 6.5px; font-family: 'Times New Roman', 'DejaVu Serif', serif; text-anchor: start; fill: #5a6b7b" x="807.78983" y="166.081523" transform="rotate(-0 807.78983 166.081523)">Concentrated cause, socialized burden</text>
   </g>
   <g id="text_25">
    <text style="font-weight: 700; font-size: 7.2px; font-family: 'Times New Roman', 'DejaVu Serif', serif; text-anchor: start; fill: #2f5e8a" x="807.78983" y="180.671063" transform="rotate(-0 807.78983 180.671063)">§3.2 Whether appears?</text>
   </g>
   <g id="text_26">
    <text style="font-size: 6.5px; font-family: 'Times New Roman', 'DejaVu Serif', serif; text-anchor: start; fill: #5a6b7b" x="807.78983" y="190.921523" transform="rotate(-0 807.78983 190.921523)">Ratchet upward, no clawback</text>
   </g>
   <g id="text_27">
    <text style="font-weight: 700; font-size: 7.2px; font-family: 'Times New Roman', 'DejaVu Serif', serif; text-anchor: start; fill: #2f5e8a" x="807.78983" y="205.513312" transform="rotate(-0 807.78983 205.513312)">§3.3 What kind of cost?</text>
   </g>
   <g id="text_28">
    <text style="font-size: 6.5px; font-family: 'Times New Roman', 'DejaVu Serif', serif; text-anchor: start; fill: #5a6b7b" x="807.78983" y="215.75543" transform="rotate(-0 807.78983 215.75543)">~84% inframarginal transfer</text>
   </g>
   <g id="text_29">
    <text style="font-style: italic; font-size: 6.8px; font-family: 'Times New Roman', 'DejaVu Serif', serif; text-anchor: middle; fill: #c24a3a" x="386.119944" y="406.46375" transform="rotate(-0 386.119944 406.46375)">accountability boundary</text>
   </g>
   <g id="text_30">
    <text style="font-weight: 700; font-size: 8px; font-family: 'Times New Roman', 'DejaVu Serif', serif; text-anchor: middle; fill: #c24a3a" x="194.230998" y="327.9655" transform="rotate(-0 194.230998 327.9655)">OPEN: retail allocation</text>
   </g>
   <g id="text_31">
    <text style="font-size: 7px; font-family: 'Times New Roman', 'DejaVu Serif', serif; text-anchor: start; fill: #1a2332" x="28.574971" y="342.432625" transform="rotate(-0 28.574971 342.432625)">zone → LSE settlement: confidential</text>
   </g>
   <g id="text_32">
    <text style="font-size: 7px; font-family: 'Times New Roman', 'DejaVu Serif', serif; text-anchor: start; fill: #1a2332" x="28.574971" y="358.164625" transform="rotate(-0 28.574971 358.164625)">cross-class allocation: pending</text>
   </g>
   <g id="text_33">
    <text style="font-size: 7px; font-family: 'Times New Roman', 'DejaVu Serif', serif; text-anchor: start; fill: #1a2332" x="28.574971" y="373.896625" transform="rotate(-0 28.574971 373.896625)">household incidence: NOT point-identifiable</text>
   </g>
   <g id="patch_14">
    <path d="M 379.859973 346.473 
Q 390.006168 346.473 401.605808 346.473 
" style="fill: none; stroke: #c24a3a; stroke-width: 1.3; stroke-linecap: round"/>
    <path d="M 383.459973 348.273 
L 379.859973 346.473 
L 383.459973 344.673 
" style="fill: none; stroke: #c24a3a; stroke-width: 1.3; stroke-linecap: round"/>
   </g>
   <g id="text_34">
    <text style="font-weight: 700; font-size: 8px; font-family: 'Times New Roman', 'DejaVu Serif', serif; text-anchor: middle; fill: #d98a3d" x="714.517229" y="328.0905" transform="rotate(-0 714.517229 328.0905)">Socialized by consumption (pro-rata)</text>
   </g>
   <g id="text_35">
    <text style="font-size: 7px; font-family: 'Times New Roman', 'DejaVu Serif', serif; text-anchor: start; fill: #1a2332" x="424.983528" y="342.432625" transform="rotate(-0 424.983528 342.432625)">DOM causes 61.6%  /  bears 16.1%  →  3.8× causation–burden gap</text>
   </g>
   <g id="text_36">
    <text style="font-size: 7px; font-family: 'Times New Roman', 'DejaVu Serif', serif; text-anchor: start; fill: #1a2332" x="424.983528" y="358.164625" transform="rotate(-0 424.983528 358.164625)">84% of effect is inframarginal transfer to incumbents (not cost of service)</text>
   </g>
   <g id="text_37">
    <text style="font-size: 7px; font-family: 'Times New Roman', 'DejaVu Serif', serif; text-anchor: start; fill: #1a2332" x="424.983528" y="373.896625" transform="rotate(-0 424.983528 373.896625)">Household-dollar incidence not derivable from wholesale record alone</text>
   </g>
  </g>
 </g>
</svg>
