<?xml version="1.0" encoding="utf-8" standalone="no"?>
<!DOCTYPE svg PUBLIC "-//W3C//DTD SVG 1.1//EN"
  "http://www.w3.org/Graphics/SVG/1.1/DTD/svg11.dtd">
<svg xmlns:xlink="http://www.w3.org/1999/xlink" width="750.96pt" height="330.408pt" viewBox="0 0 750.96 330.408" xmlns="http://www.w3.org/2000/svg" version="1.1">
 <metadata>
  <rdf:RDF xmlns:dc="http://purl.org/dc/elements/1.1/" xmlns:cc="http://creativecommons.org/ns#" xmlns:rdf="http://www.w3.org/1999/02/22-rdf-syntax-ns#">
   <cc:Work>
    <dc:type rdf:resource="http://purl.org/dc/dcmitype/StillImage"/>
    <dc:date>2026-07-01T11:59:58.629153</dc:date>
    <dc:format>image/svg+xml</dc:format>
    <dc:creator>
     <cc:Agent>
      <dc:title>Matplotlib v3.10.9, https://matplotlib.org/</dc:title>
     </cc:Agent>
    </dc:creator>
   </cc:Work>
  </rdf:RDF>
 </metadata>
 <defs>
  <style type="text/css">*{stroke-linejoin: round; stroke-linecap: butt}</style>
 </defs>
 <g id="figure_1">
  <g id="patch_1">
   <path d="M 0 330.408
L 750.96 330.408
L 750.96 0
L 0 0
z
" style="fill: #ffffff"/>
  </g>
  <g id="axes_1">
   <g id="patch_2">
    <path d="M 23.40432 168.36408
L 102.21624 168.36408
Q 116.94744 168.36408 116.94744 162.04392
L 116.94744 103.58244
Q 116.94744 97.26228 102.21624 97.26228
L 23.40432 97.26228
Q 8.67312 97.26228 8.67312 103.58244
L 8.67312 162.04392
Q 8.67312 168.36408 23.40432 168.36408
z
" clip-path="url(#p9add285028)" style="fill: #ffffff; stroke: #2a9d8f; stroke-width: 1.7; stroke-linejoin: miter"/>
   </g>
   <g id="patch_3">
    <path d="M 16.03872 114.64272
L 109.58184 114.64272
L 109.58184 100.42236
L 16.03872 100.42236
z
" clip-path="url(#p9add285028)" style="fill: #2a9d8f; stroke: #2a9d8f; stroke-linejoin: miter"/>
   </g>
   <g id="patch_4">
    <path d="M 125.0496 168.36408
L 203.86152 168.36408
Q 218.59272 168.36408 218.59272 162.04392
L 218.59272 103.58244
Q 218.59272 97.26228 203.86152 97.26228
L 125.0496 97.26228
Q 110.3184 97.26228 110.3184 103.58244
L 110.3184 162.04392
Q 110.3184 168.36408 125.0496 168.36408
z
" clip-path="url(#p9add285028)" style="fill: #ffffff; stroke: #2a9d8f; stroke-width: 1.7; stroke-linejoin: miter"/>
   </g>
   <g id="patch_5">
    <path d="M 117.684 114.64272
L 211.22712 114.64272
L 211.22712 100.42236
L 117.684 100.42236
z
" clip-path="url(#p9add285028)" style="fill: #2a9d8f; stroke: #2a9d8f; stroke-linejoin: miter"/>
   </g>
   <g id="patch_6">
    <path d="M 226.69488 168.36408
L 305.5068 168.36408
Q 320.238 168.36408 320.238 162.04392
L 320.238 103.58244
Q 320.238 97.26228 305.5068 97.26228
L 226.69488 97.26228
Q 211.96368 97.26228 211.96368 103.58244
L 211.96368 162.04392
Q 211.96368 168.36408 226.69488 168.36408
z
" clip-path="url(#p9add285028)" style="fill: #ffffff; stroke: #f4a261; stroke-width: 1.7; stroke-linejoin: miter"/>
   </g>
   <g id="patch_7">
    <path d="M 219.32928 114.64272
L 312.8724 114.64272
L 312.8724 100.42236
L 219.32928 100.42236
z
" clip-path="url(#p9add285028)" style="fill: #f4a261; stroke: #f4a261; stroke-linejoin: miter"/>
   </g>
   <g id="patch_8">
    <path d="M 328.34016 168.36408
L 407.15208 168.36408
Q 421.88328 168.36408 421.88328 162.04392
L 421.88328 103.58244
Q 421.88328 97.26228 407.15208 97.26228
L 328.34016 97.26228
Q 313.60896 97.26228 313.60896 103.58244
L 313.60896 162.04392
Q 313.60896 168.36408 328.34016 168.36408
z
" clip-path="url(#p9add285028)" style="fill: #ffffff; stroke: #e9a23b; stroke-width: 1.7; stroke-linejoin: miter"/>
   </g>
   <g id="patch_9">
    <path d="M 320.97456 114.64272
L 414.51768 114.64272
L 414.51768 100.42236
L 320.97456 100.42236
z
" clip-path="url(#p9add285028)" style="fill: #e9a23b; stroke: #e9a23b; stroke-linejoin: miter"/>
   </g>
   <g id="patch_10">
    <path d="M 429.98544 168.36408
L 508.79736 168.36408
Q 523.52856 168.36408 523.52856 162.04392
L 523.52856 103.58244
Q 523.52856 97.26228 508.79736 97.26228
L 429.98544 97.26228
Q 415.25424 97.26228 415.25424 103.58244
L 415.25424 162.04392
Q 415.25424 168.36408 429.98544 168.36408
z
" clip-path="url(#p9add285028)" style="fill: #ffffff; stroke-dasharray: 6.29,2.72; stroke-dashoffset: 0; stroke: #c24a3a; stroke-width: 1.7; stroke-linejoin: miter"/>
   </g>
   <g id="patch_11">
    <path d="M 422.61984 114.64272
L 516.16296 114.64272
L 516.16296 100.42236
L 422.61984 100.42236
z
" clip-path="url(#p9add285028)" style="fill: #c24a3a; stroke: #c24a3a; stroke-linejoin: miter"/>
   </g>
   <g id="patch_12">
    <path d="M 531.63072 168.36408
L 610.44264 168.36408
Q 625.17384 168.36408 625.17384 162.04392
L 625.17384 103.58244
Q 625.17384 97.26228 610.44264 97.26228
L 531.63072 97.26228
Q 516.89952 97.26228 516.89952 103.58244
L 516.89952 162.04392
Q 516.89952 168.36408 531.63072 168.36408
z
" clip-path="url(#p9add285028)" style="fill: #ffffff; stroke-dasharray: 6.29,2.72; stroke-dashoffset: 0; stroke: #c24a3a; stroke-width: 1.7; stroke-linejoin: miter"/>
   </g>
   <g id="patch_13">
    <path d="M 524.26512 114.64272
L 617.80824 114.64272
L 617.80824 100.42236
L 524.26512 100.42236
z
" clip-path="url(#p9add285028)" style="fill: #c24a3a; stroke: #c24a3a; stroke-linejoin: miter"/>
   </g>
   <g id="patch_14">
    <path d="M 633.276 168.36408
L 712.08792 168.36408
Q 726.81912 168.36408 726.81912 162.04392
L 726.81912 103.58244
Q 726.81912 97.26228 712.08792 97.26228
L 633.276 97.26228
Q 618.5448 97.26228 618.5448 103.58244
L 618.5448 162.04392
Q 618.5448 168.36408 633.276 168.36408
z
" clip-path="url(#p9add285028)" style="fill: #ffffff; stroke-dasharray: 6.29,2.72; stroke-dashoffset: 0; stroke: #c24a3a; stroke-width: 1.7; stroke-linejoin: miter"/>
   </g>
   <g id="patch_15">
    <path d="M 625.9104 114.64272
L 719.45352 114.64272
L 719.45352 100.42236
L 625.9104 100.42236
z
" clip-path="url(#p9add285028)" style="fill: #c24a3a; stroke: #c24a3a; stroke-linejoin: miter"/>
   </g>
   <g id="patch_16">
    <path d="M 18.2484 309.619656
L 732.7116 309.619656
Q 743.76 309.619656 743.76 304.879536
L 743.76 219.873384
Q 743.76 215.133264 732.7116 215.133264
L 18.2484 215.133264
Q 7.2 215.133264 7.2 219.873384
L 7.2 304.879536
Q 7.2 309.619656 18.2484 309.619656
z
" clip-path="url(#p9add285028)" style="fill: #f4f8fb; stroke: #2f5e8a; stroke-width: 1.3; stroke-linejoin: miter"/>
   </g>
   <g id="patch_17">
    <path d="M 47.7108 252.738216
C 50.054856 252.738216 52.303221 252.338657 53.960719 251.627537
C 55.618217 250.916417 56.54952 249.951796 56.54952 248.94612
C 56.54952 247.940444 55.618217 246.975823 53.960719 246.264703
C 52.303221 245.553583 50.054856 245.154024 47.7108 245.154024
C 45.366744 245.154024 43.118379 245.553583 41.460881 246.264703
C 39.803383 246.975823 38.87208 247.940444 38.87208 248.94612
C 38.87208 249.951796 39.803383 250.916417 41.460881 251.627537
C 43.118379 252.338657 45.366744 252.738216 47.7108 252.738216
z
" clip-path="url(#p9add285028)" style="fill: #2a9d8f"/>
   </g>
   <g id="patch_18">
    <path d="M 386.5284 252.738216
C 388.872456 252.738216 391.120821 252.338657 392.778319 251.627537
C 394.435817 250.916417 395.36712 249.951796 395.36712 248.94612
C 395.36712 247.940444 394.435817 246.975823 392.778319 246.264703
C 391.120821 245.553583 388.872456 245.154024 386.5284 245.154024
C 384.184344 245.154024 381.935979 245.553583 380.278481 246.264703
C 378.620983 246.975823 377.68968 247.940444 377.68968 248.94612
C 377.68968 249.951796 378.620983 250.916417 380.278481 251.627537
C 381.935979 252.338657 384.184344 252.738216 386.5284 252.738216
z
" clip-path="url(#p9add285028)" style="fill: #2a9d8f"/>
   </g>
   <g id="patch_19">
    <path d="M 47.7108 272.330712
C 50.054856 272.330712 52.303221 271.931153 53.960719 271.220033
C 55.618217 270.508913 56.54952 269.544292 56.54952 268.538616
C 56.54952 267.53294 55.618217 266.568319 53.960719 265.857199
C 52.303221 265.146079 50.054856 264.74652 47.7108 264.74652
C 45.366744 264.74652 43.118379 265.146079 41.460881 265.857199
C 39.803383 266.568319 38.87208 267.53294 38.87208 268.538616
C 38.87208 269.544292 39.803383 270.508913 41.460881 271.220033
C 43.118379 271.931153 45.366744 272.330712 47.7108 272.330712
z
" clip-path="url(#p9add285028)" style="fill: #c24a3a"/>
   </g>
   <g id="patch_20">
    <path d="M 386.5284 272.330712
C 388.872456 272.330712 391.120821 271.931153 392.778319 271.220033
C 394.435817 270.508913 395.36712 269.544292 395.36712 268.538616
C 395.36712 267.53294 394.435817 266.568319 392.778319 265.857199
C 391.120821 265.146079 388.872456 264.74652 386.5284 264.74652
C 384.184344 264.74652 381.935979 265.146079 380.278481 265.857199
C 378.620983 266.568319 377.68968 267.53294 377.68968 268.538616
C 377.68968 269.544292 378.620983 270.508913 380.278481 271.220033
C 381.935979 271.931153 384.184344 272.330712 386.5284 272.330712
z
" clip-path="url(#p9add285028)" style="fill: #c24a3a"/>
   </g>
   <g id="patch_21">
    <path d="M 47.7108 291.923208
C 50.054856 291.923208 52.303221 291.523649 53.960719 290.812529
C 55.618217 290.101409 56.54952 289.136788 56.54952 288.131112
C 56.54952 287.125436 55.618217 286.160815 53.960719 285.449695
C 52.303221 284.738575 50.054856 284.339016 47.7108 284.339016
C 45.366744 284.339016 43.118379 284.738575 41.460881 285.449695
C 39.803383 286.160815 38.87208 287.125436 38.87208 288.131112
C 38.87208 289.136788 39.803383 290.101409 41.460881 290.812529
C 43.118379 291.523649 45.366744 291.923208 47.7108 291.923208
z
" clip-path="url(#p9add285028)" style="fill: #c24a3a"/>
   </g>
   <g id="line2d_1">
    <path d="M 418.20048 184.16448
L 418.20048 87.78204
" clip-path="url(#p9add285028)" style="fill: none; stroke-dasharray: 1.4,2.31; stroke-dashoffset: 0; stroke: #c24a3a; stroke-width: 1.4"/>
   </g>
   <g id="text_1">
    <text style="font-weight: 700; font-size: 14.5px; font-family: 'DejaVu Sans'; text-anchor: start; fill: #111827" x="16.03872" y="34.018134" transform="rotate(-0 16.03872 34.018134)">The closure taxonomy: from forecast to (not-yet-auditable) household incidence</text>
   </g>
   <g id="text_2">
    <text style="font-size: 8.8px; font-family: 'DejaVu Sans'; text-anchor: start; fill: #667085" x="16.03872" y="48.647505" transform="rotate(-0 16.03872 48.647505)">Each link is coloured by identification status. Claims are bounded by the weakest link they cross; the chain goes dark before the household.</text>
   </g>
   <g id="text_3">
    <text style="font-weight: 700; font-size: 6.6px; font-family: 'DejaVu Sans'; text-anchor: start; fill: #ffffff" x="23.40432" y="109.353727" transform="rotate(-0 23.40432 109.353727)">CLOSED</text>
   </g>
   <g id="text_4">
    <text style="font-weight: 700; font-size: 7.6px; font-family: 'DejaVu Sans'; text-anchor: start; fill: #243447" x="23.40432" y="147.678941" transform="rotate(-0 23.40432 147.678941)">Admissibility gate</text>
   </g>
   <g id="patch_22">
    <path d="M 112.394848 132.81318
Q 113.431208 132.81318 113.014123 132.81318
" style="fill: none; stroke: #667085; stroke-width: 1.3; stroke-linecap: round"/>
    <path d="M 109.414123 131.01318
L 113.014123 132.81318
L 109.414123 134.61318
z
" style="fill: #667085; stroke: #667085; stroke-width: 1.3; stroke-linecap: round"/>
   </g>
   <g id="text_5">
    <text style="font-weight: 700; font-size: 6.6px; font-family: 'DejaVu Sans'; text-anchor: start; fill: #ffffff" x="125.0496" y="109.353727" transform="rotate(-0 125.0496 109.353727)">CLOSED</text>
   </g>
   <g id="text_6">
    <text style="font-weight: 700; font-size: 7.6px; font-family: 'DejaVu Sans'; text-anchor: start; fill: #243447" x="125.0496" y="147.678941" transform="rotate(-0 125.0496 147.678941)">PJM-wide magnitude</text>
   </g>
   <g id="patch_23">
    <path d="M 214.040128 132.81318
Q 215.076488 132.81318 214.659403 132.81318
" style="fill: none; stroke: #667085; stroke-width: 1.3; stroke-linecap: round"/>
    <path d="M 211.059403 131.01318
L 214.659403 132.81318
L 211.059403 134.61318
z
" style="fill: #667085; stroke: #667085; stroke-width: 1.3; stroke-linecap: round"/>
   </g>
   <g id="text_7">
    <text style="font-weight: 700; font-size: 6.6px; font-family: 'DejaVu Sans'; text-anchor: start; fill: #ffffff" x="226.69488" y="109.353727" transform="rotate(-0 226.69488 109.353727)">CONSTRUCTED</text>
   </g>
   <g id="text_8">
    <text style="font-weight: 700; font-size: 7.6px; font-family: 'DejaVu Sans'; fill: #243447" transform="translate(226.69488 143.856884)">Zonal allocation</text>
    <text style="font-weight: 700; font-size: 7.6px; font-family: 'DejaVu Sans'; fill: #243447" transform="translate(226.69488 151.500999)">bridge</text>
   </g>
   <g id="patch_24">
    <path d="M 315.685408 132.81318
Q 316.721768 132.81318 316.304683 132.81318
" style="fill: none; stroke: #667085; stroke-width: 1.3; stroke-linecap: round"/>
    <path d="M 312.704683 131.01318
L 316.304683 132.81318
L 312.704683 134.61318
z
" style="fill: #667085; stroke: #667085; stroke-width: 1.3; stroke-linecap: round"/>
   </g>
   <g id="text_9">
    <text style="font-weight: 700; font-size: 6.6px; font-family: 'DejaVu Sans'; text-anchor: start; fill: #ffffff" x="328.34016" y="109.353727" transform="rotate(-0 328.34016 109.353727)">FORMULA-LEVEL</text>
   </g>
   <g id="text_10">
    <text style="font-weight: 700; font-size: 7.6px; font-family: 'DejaVu Sans'; fill: #243447" transform="translate(328.34016 143.886571)">Zone→LSE</text>
    <text style="font-weight: 700; font-size: 7.6px; font-family: 'DejaVu Sans'; fill: #243447" transform="translate(328.34016 151.530687)">settlement</text>
   </g>
   <g id="patch_25">
    <path d="M 417.330688 132.81318
Q 418.367048 132.81318 417.949963 132.81318
" style="fill: none; stroke: #667085; stroke-width: 1.3; stroke-linecap: round"/>
    <path d="M 414.349963 131.01318
L 417.949963 132.81318
L 414.349963 134.61318
z
" style="fill: #667085; stroke: #667085; stroke-width: 1.3; stroke-linecap: round"/>
   </g>
   <g id="text_11">
    <text style="font-weight: 700; font-size: 6.6px; font-family: 'DejaVu Sans'; text-anchor: start; fill: #ffffff" x="429.98544" y="109.353727" transform="rotate(-0 429.98544 109.353727)">PENDING</text>
   </g>
   <g id="text_12">
    <text style="font-weight: 700; font-size: 7.6px; font-family: 'DejaVu Sans'; text-anchor: start; fill: #243447" x="429.98544" y="147.678941" transform="rotate(-0 429.98544 147.678941)">Approved recovery</text>
   </g>
   <g id="patch_26">
    <path d="M 518.975968 132.81318
Q 520.012328 132.81318 519.595243 132.81318
" style="fill: none; stroke: #667085; stroke-width: 1.3; stroke-linecap: round"/>
    <path d="M 515.995243 131.01318
L 519.595243 132.81318
L 515.995243 134.61318
z
" style="fill: #667085; stroke: #667085; stroke-width: 1.3; stroke-linecap: round"/>
   </g>
   <g id="text_13">
    <text style="font-weight: 700; font-size: 6.6px; font-family: 'DejaVu Sans'; text-anchor: start; fill: #ffffff" x="531.63072" y="109.353727" transform="rotate(-0 531.63072 109.353727)">PENDING</text>
   </g>
   <g id="text_14">
    <text style="font-weight: 700; font-size: 7.6px; font-family: 'DejaVu Sans'; fill: #243447" transform="translate(531.63072 143.886571)">Approved class</text>
    <text style="font-weight: 700; font-size: 7.6px; font-family: 'DejaVu Sans'; fill: #243447" transform="translate(531.63072 151.530687)">allocation</text>
   </g>
   <g id="patch_27">
    <path d="M 620.621248 132.81318
Q 621.657608 132.81318 621.240523 132.81318
" style="fill: none; stroke: #667085; stroke-width: 1.3; stroke-linecap: round"/>
    <path d="M 617.640523 131.01318
L 621.240523 132.81318
L 617.640523 134.61318
z
" style="fill: #667085; stroke: #667085; stroke-width: 1.3; stroke-linecap: round"/>
   </g>
   <g id="text_15">
    <text style="font-weight: 700; font-size: 6.6px; font-family: 'DejaVu Sans'; text-anchor: start; fill: #ffffff" x="633.276" y="109.353727" transform="rotate(-0 633.276 109.353727)">NOT IDENTIFIED</text>
   </g>
   <g id="text_16">
    <text style="font-weight: 700; font-size: 7.6px; font-family: 'DejaVu Sans'; fill: #243447" transform="translate(633.276 143.886571)">Household</text>
    <text style="font-weight: 700; font-size: 7.6px; font-family: 'DejaVu Sans'; fill: #243447" transform="translate(633.276 151.530687)">incidence</text>
   </g>
   <g id="text_17">
    <text style="font-style: italic; font-size: 7.6px; font-family: 'DejaVu Sans'; text-anchor: middle; fill: #c24a3a" x="555.20064" y="196.8048" transform="rotate(-0 555.20064 196.8048)">records go dark here (confidential / pending)</text>
   </g>
   <g id="text_18">
    <text style="font-weight: 700; font-size: 9.6px; font-family: 'DejaVu Sans'; text-anchor: start; fill: #2f5e8a" x="29.2968" y="229.98564" transform="rotate(-0 29.2968 229.98564)">Minimum capacity-liability disclosure standard</text>
   </g>
   <g id="text_19">
    <text style="font-weight: 700; font-size: 6.4px; font-family: 'DejaVu Sans'; text-anchor: middle; fill: #ffffff" x="47.7108" y="250.71212" transform="rotate(-0 47.7108 250.71212)">1</text>
   </g>
   <g id="text_20">
    <text style="font-size: 7.6px; font-family: 'DejaVu Sans'; text-anchor: start; fill: #243447" x="62.442" y="251.043245" transform="rotate(-0 62.442 251.043245)">Firm forecast increment + screening</text>
   </g>
   <g id="text_21">
    <text style="font-weight: 700; font-size: 6.4px; font-family: 'DejaVu Sans'; text-anchor: middle; fill: #ffffff" x="386.5284" y="250.71212" transform="rotate(-0 386.5284 250.71212)">2</text>
   </g>
   <g id="text_22">
    <text style="font-size: 7.6px; font-family: 'DejaVu Sans'; text-anchor: start; fill: #243447" x="401.2596" y="251.043245" transform="rotate(-0 401.2596 251.043245)">Zonal allocation share</text>
   </g>
   <g id="text_23">
    <text style="font-weight: 700; font-size: 6.4px; font-family: 'DejaVu Sans'; text-anchor: middle; fill: #ffffff" x="47.7108" y="270.304616" transform="rotate(-0 47.7108 270.304616)">3</text>
   </g>
   <g id="text_24">
    <text style="font-size: 7.6px; font-family: 'DejaVu Sans'; text-anchor: start; fill: #243447" x="62.442" y="270.635741" transform="rotate(-0 62.442 270.635741)">LSE-level settlement mapping</text>
   </g>
   <g id="text_25">
    <text style="font-weight: 700; font-size: 6.4px; font-family: 'DejaVu Sans'; text-anchor: middle; fill: #ffffff" x="386.5284" y="270.304616" transform="rotate(-0 386.5284 270.304616)">4</text>
   </g>
   <g id="text_26">
    <text style="font-size: 7.6px; font-family: 'DejaVu Sans'; text-anchor: start; fill: #243447" x="401.2596" y="270.635741" transform="rotate(-0 401.2596 270.635741)">Recovery channel + class allocation</text>
   </g>
   <g id="text_27">
    <text style="font-weight: 700; font-size: 6.4px; font-family: 'DejaVu Sans'; text-anchor: middle; fill: #ffffff" x="47.7108" y="289.897112" transform="rotate(-0 47.7108 289.897112)">5</text>
   </g>
   <g id="text_28">
    <text style="font-size: 7.6px; font-family: 'DejaVu Sans'; text-anchor: start; fill: #243447" x="62.442" y="290.228237" transform="rotate(-0 62.442 290.228237)">Tariff-design mapping + denominator</text>
   </g>
   <g id="text_29">
    <text style="font-style: italic; font-size: 7.3px; font-family: 'DejaVu Sans'; text-anchor: start; fill: #667085" x="29.2968" y="297.295344" transform="rotate(-0 29.2968 297.295344)">Fields 1-2 are disclosable today (used here); fields 3-5 are where the chain goes dark.</text>
   </g>
  </g>
 </g>
 <defs>
  <clipPath id="p9add285028">
   <rect x="7.2" y="7.2" width="736.56" height="316.008"/>
  </clipPath>
 </defs>
</svg>
