<?xml version="1.0" encoding="utf-8" standalone="no"?>
<!DOCTYPE svg PUBLIC "-//W3C//DTD SVG 1.1//EN"
  "http://www.w3.org/Graphics/SVG/1.1/DTD/svg11.dtd">
<svg xmlns:xlink="http://www.w3.org/1999/xlink" width="420.281563pt" height="272.744125pt" viewBox="0 0 420.281563 272.744125" xmlns="http://www.w3.org/2000/svg" version="1.1">
 <metadata>
  <rdf:RDF xmlns:dc="http://purl.org/dc/elements/1.1/" xmlns:cc="http://creativecommons.org/ns#" xmlns:rdf="http://www.w3.org/1999/02/22-rdf-syntax-ns#">
   <cc:Work>
    <dc:type rdf:resource="http://purl.org/dc/dcmitype/StillImage"/>
    <dc:date>2026-06-30T16:23:04.699480</dc:date>
    <dc:format>image/svg+xml</dc:format>
    <dc:creator>
     <cc:Agent>
      <dc:title>Matplotlib v3.10.9, https://matplotlib.org/</dc:title>
     </cc:Agent>
    </dc:creator>
   </cc:Work>
  </rdf:RDF>
 </metadata>
 <defs>
  <style type="text/css">*{stroke-linejoin: round; stroke-linecap: butt}</style>
 </defs>
 <g id="figure_1">
  <g id="patch_1">
   <path d="M 0 272.744125 
L 420.281563 272.744125 
L 420.281563 0 
L 0 0 
z
" style="fill: #ffffff"/>
  </g>
  <g id="axes_1">
   <g id="patch_2">
    <path d="M 44.801563 236.35975 
L 413.081563 236.35975 
L 413.081563 20.14375 
L 44.801563 20.14375 
z
" style="fill: #ffffff"/>
   </g>
   <g id="patch_3">
    <path d="M 61.541563 236.35975 
L 65.726563 236.35975 
L 65.726563 236.261459 
L 61.541563 236.261459 
z
" clip-path="url(#p77bd9a6b73)" style="fill: #34618f; opacity: 0.55; stroke: #ffffff; stroke-width: 0.2; stroke-linejoin: miter"/>
   </g>
   <g id="patch_4">
    <path d="M 65.726563 236.35975 
L 69.911563 236.35975 
L 69.911563 236.35975 
L 65.726563 236.35975 
z
" clip-path="url(#p77bd9a6b73)" style="fill: #34618f; opacity: 0.55; stroke: #ffffff; stroke-width: 0.2; stroke-linejoin: miter"/>
   </g>
   <g id="patch_5">
    <path d="M 69.911563 236.35975 
L 74.096563 236.35975 
L 74.096563 236.35975 
L 69.911563 236.35975 
z
" clip-path="url(#p77bd9a6b73)" style="fill: #34618f; opacity: 0.55; stroke: #ffffff; stroke-width: 0.2; stroke-linejoin: miter"/>
   </g>
   <g id="patch_6">
    <path d="M 74.096563 236.35975 
L 78.281563 236.35975 
L 78.281563 236.35975 
L 74.096563 236.35975 
z
" clip-path="url(#p77bd9a6b73)" style="fill: #34618f; opacity: 0.55; stroke: #ffffff; stroke-width: 0.2; stroke-linejoin: miter"/>
   </g>
   <g id="patch_7">
    <path d="M 78.281563 236.35975 
L 82.466563 236.35975 
L 82.466563 236.35975 
L 78.281563 236.35975 
z
" clip-path="url(#p77bd9a6b73)" style="fill: #34618f; opacity: 0.55; stroke: #ffffff; stroke-width: 0.2; stroke-linejoin: miter"/>
   </g>
   <g id="patch_8">
    <path d="M 82.466563 236.35975 
L 86.651563 236.35975 
L 86.651563 236.261459 
L 82.466563 236.261459 
z
" clip-path="url(#p77bd9a6b73)" style="fill: #34618f; opacity: 0.55; stroke: #ffffff; stroke-width: 0.2; stroke-linejoin: miter"/>
   </g>
   <g id="patch_9">
    <path d="M 86.651563 236.35975 
L 90.836563 236.35975 
L 90.836563 236.35975 
L 86.651563 236.35975 
z
" clip-path="url(#p77bd9a6b73)" style="fill: #34618f; opacity: 0.55; stroke: #ffffff; stroke-width: 0.2; stroke-linejoin: miter"/>
   </g>
   <g id="patch_10">
    <path d="M 90.836563 236.35975 
L 95.021563 236.35975 
L 95.021563 236.261459 
L 90.836563 236.261459 
z
" clip-path="url(#p77bd9a6b73)" style="fill: #34618f; opacity: 0.55; stroke: #ffffff; stroke-width: 0.2; stroke-linejoin: miter"/>
   </g>
   <g id="patch_11">
    <path d="M 95.021563 236.35975 
L 99.206563 236.35975 
L 99.206563 235.770003 
L 95.021563 235.770003 
z
" clip-path="url(#p77bd9a6b73)" style="fill: #34618f; opacity: 0.55; stroke: #ffffff; stroke-width: 0.2; stroke-linejoin: miter"/>
   </g>
   <g id="patch_12">
    <path d="M 99.206563 236.35975 
L 103.391563 236.35975 
L 103.391563 235.573421 
L 99.206563 235.573421 
z
" clip-path="url(#p77bd9a6b73)" style="fill: #34618f; opacity: 0.55; stroke: #ffffff; stroke-width: 0.2; stroke-linejoin: miter"/>
   </g>
   <g id="patch_13">
    <path d="M 103.391563 236.35975 
L 107.576563 236.35975 
L 107.576563 235.868294 
L 103.391563 235.868294 
z
" clip-path="url(#p77bd9a6b73)" style="fill: #34618f; opacity: 0.55; stroke: #ffffff; stroke-width: 0.2; stroke-linejoin: miter"/>
   </g>
   <g id="patch_14">
    <path d="M 107.576563 236.35975 
L 111.761563 236.35975 
L 111.761563 234.983674 
L 107.576563 234.983674 
z
" clip-path="url(#p77bd9a6b73)" style="fill: #34618f; opacity: 0.55; stroke: #ffffff; stroke-width: 0.2; stroke-linejoin: miter"/>
   </g>
   <g id="patch_15">
    <path d="M 111.761563 236.35975 
L 115.946563 236.35975 
L 115.946563 234.983674 
L 111.761563 234.983674 
z
" clip-path="url(#p77bd9a6b73)" style="fill: #34618f; opacity: 0.55; stroke: #ffffff; stroke-width: 0.2; stroke-linejoin: miter"/>
   </g>
   <g id="patch_16">
    <path d="M 115.946563 236.35975 
L 120.131563 236.35975 
L 120.131563 233.902471 
L 115.946563 233.902471 
z
" clip-path="url(#p77bd9a6b73)" style="fill: #34618f; opacity: 0.55; stroke: #ffffff; stroke-width: 0.2; stroke-linejoin: miter"/>
   </g>
   <g id="patch_17">
    <path d="M 120.131563 236.35975 
L 124.316563 236.35975 
L 124.316563 233.214433 
L 120.131563 233.214433 
z
" clip-path="url(#p77bd9a6b73)" style="fill: #34618f; opacity: 0.55; stroke: #ffffff; stroke-width: 0.2; stroke-linejoin: miter"/>
   </g>
   <g id="patch_18">
    <path d="M 124.316563 236.35975 
L 128.501563 236.35975 
L 128.501563 230.953736 
L 124.316563 230.953736 
z
" clip-path="url(#p77bd9a6b73)" style="fill: #34618f; opacity: 0.55; stroke: #ffffff; stroke-width: 0.2; stroke-linejoin: miter"/>
   </g>
   <g id="patch_19">
    <path d="M 128.501563 236.35975 
L 132.686563 236.35975 
L 132.686563 230.265697 
L 128.501563 230.265697 
z
" clip-path="url(#p77bd9a6b73)" style="fill: #34618f; opacity: 0.55; stroke: #ffffff; stroke-width: 0.2; stroke-linejoin: miter"/>
   </g>
   <g id="patch_20">
    <path d="M 132.686563 236.35975 
L 136.871563 236.35975 
L 136.871563 226.727215 
L 132.686563 226.727215 
z
" clip-path="url(#p77bd9a6b73)" style="fill: #34618f; opacity: 0.55; stroke: #ffffff; stroke-width: 0.2; stroke-linejoin: miter"/>
   </g>
   <g id="patch_21">
    <path d="M 136.871563 236.35975 
L 141.056563 236.35975 
L 141.056563 224.859683 
L 136.871563 224.859683 
z
" clip-path="url(#p77bd9a6b73)" style="fill: #34618f; opacity: 0.55; stroke: #ffffff; stroke-width: 0.2; stroke-linejoin: miter"/>
   </g>
   <g id="patch_22">
    <path d="M 141.056563 236.35975 
L 145.241563 236.35975 
L 145.241563 220.633163 
L 141.056563 220.633163 
z
" clip-path="url(#p77bd9a6b73)" style="fill: #34618f; opacity: 0.55; stroke: #ffffff; stroke-width: 0.2; stroke-linejoin: miter"/>
   </g>
   <g id="patch_23">
    <path d="M 145.241563 236.35975 
L 149.426563 236.35975 
L 149.426563 217.979301 
L 145.241563 217.979301 
z
" clip-path="url(#p77bd9a6b73)" style="fill: #34618f; opacity: 0.55; stroke: #ffffff; stroke-width: 0.2; stroke-linejoin: miter"/>
   </g>
   <g id="patch_24">
    <path d="M 149.426563 236.35975 
L 153.611563 236.35975 
L 153.611563 207.658729 
L 149.426563 207.658729 
z
" clip-path="url(#p77bd9a6b73)" style="fill: #34618f; opacity: 0.55; stroke: #ffffff; stroke-width: 0.2; stroke-linejoin: miter"/>
   </g>
   <g id="patch_25">
    <path d="M 153.611563 236.35975 
L 157.796563 236.35975 
L 157.796563 200.090308 
L 153.611563 200.090308 
z
" clip-path="url(#p77bd9a6b73)" style="fill: #34618f; opacity: 0.55; stroke: #ffffff; stroke-width: 0.2; stroke-linejoin: miter"/>
   </g>
   <g id="patch_26">
    <path d="M 157.796563 236.35975 
L 161.981563 236.35975 
L 161.981563 184.462013 
L 157.796563 184.462013 
z
" clip-path="url(#p77bd9a6b73)" style="fill: #34618f; opacity: 0.55; stroke: #ffffff; stroke-width: 0.2; stroke-linejoin: miter"/>
   </g>
   <g id="patch_27">
    <path d="M 161.981563 236.35975 
L 166.166563 236.35975 
L 166.166563 171.094413 
L 161.981563 171.094413 
z
" clip-path="url(#p77bd9a6b73)" style="fill: #34618f; opacity: 0.55; stroke: #ffffff; stroke-width: 0.2; stroke-linejoin: miter"/>
   </g>
   <g id="patch_28">
    <path d="M 166.166563 236.35975 
L 170.351563 236.35975 
L 170.351563 155.957573 
L 166.166563 155.957573 
z
" clip-path="url(#p77bd9a6b73)" style="fill: #34618f; opacity: 0.55; stroke: #ffffff; stroke-width: 0.2; stroke-linejoin: miter"/>
   </g>
   <g id="patch_29">
    <path d="M 170.351563 236.35975 
L 174.536563 236.35975 
L 174.536563 138.756619 
L 170.351563 138.756619 
z
" clip-path="url(#p77bd9a6b73)" style="fill: #34618f; opacity: 0.55; stroke: #ffffff; stroke-width: 0.2; stroke-linejoin: miter"/>
   </g>
   <g id="patch_30">
    <path d="M 174.536563 236.35975 
L 178.721563 236.35975 
L 178.721563 124.897564 
L 174.536563 124.897564 
z
" clip-path="url(#p77bd9a6b73)" style="fill: #34618f; opacity: 0.55; stroke: #ffffff; stroke-width: 0.2; stroke-linejoin: miter"/>
   </g>
   <g id="patch_31">
    <path d="M 178.721563 236.35975 
L 182.906563 236.35975 
L 182.906563 102.782051 
L 178.721563 102.782051 
z
" clip-path="url(#p77bd9a6b73)" style="fill: #34618f; opacity: 0.55; stroke: #ffffff; stroke-width: 0.2; stroke-linejoin: miter"/>
   </g>
   <g id="patch_32">
    <path d="M 182.906563 236.35975 
L 187.091563 236.35975 
L 187.091563 78.209258 
L 182.906563 78.209258 
z
" clip-path="url(#p77bd9a6b73)" style="fill: #34618f; opacity: 0.55; stroke: #ffffff; stroke-width: 0.2; stroke-linejoin: miter"/>
   </g>
   <g id="patch_33">
    <path d="M 187.091563 236.35975 
L 191.276563 236.35975 
L 191.276563 60.123683 
L 187.091563 60.123683 
z
" clip-path="url(#p77bd9a6b73)" style="fill: #34618f; opacity: 0.55; stroke: #ffffff; stroke-width: 0.2; stroke-linejoin: miter"/>
   </g>
   <g id="patch_34">
    <path d="M 191.276563 236.35975 
L 195.461563 236.35975 
L 195.461563 51.670643 
L 191.276563 51.670643 
z
" clip-path="url(#p77bd9a6b73)" style="fill: #34618f; opacity: 0.55; stroke: #ffffff; stroke-width: 0.2; stroke-linejoin: miter"/>
   </g>
   <g id="patch_35">
    <path d="M 195.461563 236.35975 
L 199.646563 236.35975 
L 199.646563 41.153487 
L 195.461563 41.153487 
z
" clip-path="url(#p77bd9a6b73)" style="fill: #34618f; opacity: 0.55; stroke: #ffffff; stroke-width: 0.2; stroke-linejoin: miter"/>
   </g>
   <g id="patch_36">
    <path d="M 199.646563 236.35975 
L 203.831563 236.35975 
L 203.831563 39.482538 
L 199.646563 39.482538 
z
" clip-path="url(#p77bd9a6b73)" style="fill: #34618f; opacity: 0.55; stroke: #ffffff; stroke-width: 0.2; stroke-linejoin: miter"/>
   </g>
   <g id="patch_37">
    <path d="M 203.831563 236.35975 
L 208.016563 236.35975 
L 208.016563 30.43975 
L 203.831563 30.43975 
z
" clip-path="url(#p77bd9a6b73)" style="fill: #34618f; opacity: 0.55; stroke: #ffffff; stroke-width: 0.2; stroke-linejoin: miter"/>
   </g>
   <g id="patch_38">
    <path d="M 208.016563 236.35975 
L 212.201563 236.35975 
L 212.201563 47.444122 
L 208.016563 47.444122 
z
" clip-path="url(#p77bd9a6b73)" style="fill: #34618f; opacity: 0.55; stroke: #ffffff; stroke-width: 0.2; stroke-linejoin: miter"/>
   </g>
   <g id="patch_39">
    <path d="M 212.201563 236.35975 
L 216.386563 236.35975 
L 216.386563 56.290328 
L 212.201563 56.290328 
z
" clip-path="url(#p77bd9a6b73)" style="fill: #34618f; opacity: 0.55; stroke: #ffffff; stroke-width: 0.2; stroke-linejoin: miter"/>
   </g>
   <g id="patch_40">
    <path d="M 216.386563 236.35975 
L 220.571563 236.35975 
L 220.571563 70.935712 
L 216.386563 70.935712 
z
" clip-path="url(#p77bd9a6b73)" style="fill: #34618f; opacity: 0.55; stroke: #ffffff; stroke-width: 0.2; stroke-linejoin: miter"/>
   </g>
   <g id="patch_41">
    <path d="M 220.571563 236.35975 
L 224.756563 236.35975 
L 224.756563 91.380275 
L 220.571563 91.380275 
z
" clip-path="url(#p77bd9a6b73)" style="fill: #34618f; opacity: 0.55; stroke: #ffffff; stroke-width: 0.2; stroke-linejoin: miter"/>
   </g>
   <g id="patch_42">
    <path d="M 224.756563 236.35975 
L 228.941563 236.35975 
L 228.941563 103.371798 
L 224.756563 103.371798 
z
" clip-path="url(#p77bd9a6b73)" style="fill: #34618f; opacity: 0.55; stroke: #ffffff; stroke-width: 0.2; stroke-linejoin: miter"/>
   </g>
   <g id="patch_43">
    <path d="M 228.941563 236.35975 
L 233.126563 236.35975 
L 233.126563 125.978767 
L 228.941563 125.978767 
z
" clip-path="url(#p77bd9a6b73)" style="fill: #34618f; opacity: 0.55; stroke: #ffffff; stroke-width: 0.2; stroke-linejoin: miter"/>
   </g>
   <g id="patch_44">
    <path d="M 233.126563 236.35975 
L 237.311563 236.35975 
L 237.311563 144.948962 
L 233.126563 144.948962 
z
" clip-path="url(#p77bd9a6b73)" style="fill: #34618f; opacity: 0.55; stroke: #ffffff; stroke-width: 0.2; stroke-linejoin: miter"/>
   </g>
   <g id="patch_45">
    <path d="M 237.311563 236.35975 
L 241.496563 236.35975 
L 241.496563 164.90207 
L 237.311563 164.90207 
z
" clip-path="url(#p77bd9a6b73)" style="fill: #34618f; opacity: 0.55; stroke: #ffffff; stroke-width: 0.2; stroke-linejoin: miter"/>
   </g>
   <g id="patch_46">
    <path d="M 241.496563 236.35975 
L 245.681563 236.35975 
L 245.681563 176.303845 
L 241.496563 176.303845 
z
" clip-path="url(#p77bd9a6b73)" style="fill: #34618f; opacity: 0.55; stroke: #ffffff; stroke-width: 0.2; stroke-linejoin: miter"/>
   </g>
   <g id="patch_47">
    <path d="M 245.681563 236.35975 
L 249.866563 236.35975 
L 249.866563 188.197077 
L 245.681563 188.197077 
z
" clip-path="url(#p77bd9a6b73)" style="fill: #34618f; opacity: 0.55; stroke: #ffffff; stroke-width: 0.2; stroke-linejoin: miter"/>
   </g>
   <g id="patch_48">
    <path d="M 249.866563 236.35975 
L 254.051563 236.35975 
L 254.051563 197.927903 
L 249.866563 197.927903 
z
" clip-path="url(#p77bd9a6b73)" style="fill: #34618f; opacity: 0.55; stroke: #ffffff; stroke-width: 0.2; stroke-linejoin: miter"/>
   </g>
   <g id="patch_49">
    <path d="M 254.051563 236.35975 
L 258.236563 236.35975 
L 258.236563 210.116008 
L 254.051563 210.116008 
z
" clip-path="url(#p77bd9a6b73)" style="fill: #34618f; opacity: 0.55; stroke: #ffffff; stroke-width: 0.2; stroke-linejoin: miter"/>
   </g>
   <g id="patch_50">
    <path d="M 258.236563 236.35975 
L 262.421563 236.35975 
L 262.421563 213.261325 
L 258.236563 213.261325 
z
" clip-path="url(#p77bd9a6b73)" style="fill: #34618f; opacity: 0.55; stroke: #ffffff; stroke-width: 0.2; stroke-linejoin: miter"/>
   </g>
   <g id="patch_51">
    <path d="M 262.421563 236.35975 
L 266.606563 236.35975 
L 266.606563 220.633163 
L 262.421563 220.633163 
z
" clip-path="url(#p77bd9a6b73)" style="fill: #34618f; opacity: 0.55; stroke: #ffffff; stroke-width: 0.2; stroke-linejoin: miter"/>
   </g>
   <g id="patch_52">
    <path d="M 266.606563 236.35975 
L 270.791563 236.35975 
L 270.791563 224.269936 
L 266.606563 224.269936 
z
" clip-path="url(#p77bd9a6b73)" style="fill: #34618f; opacity: 0.55; stroke: #ffffff; stroke-width: 0.2; stroke-linejoin: miter"/>
   </g>
   <g id="patch_53">
    <path d="M 270.791563 236.35975 
L 274.976563 236.35975 
L 274.976563 227.316962 
L 270.791563 227.316962 
z
" clip-path="url(#p77bd9a6b73)" style="fill: #34618f; opacity: 0.55; stroke: #ffffff; stroke-width: 0.2; stroke-linejoin: miter"/>
   </g>
   <g id="patch_54">
    <path d="M 274.976563 236.35975 
L 279.161563 236.35975 
L 279.161563 230.757153 
L 274.976563 230.757153 
z
" clip-path="url(#p77bd9a6b73)" style="fill: #34618f; opacity: 0.55; stroke: #ffffff; stroke-width: 0.2; stroke-linejoin: miter"/>
   </g>
   <g id="patch_55">
    <path d="M 279.161563 236.35975 
L 283.346563 236.35975 
L 283.346563 229.479368 
L 279.161563 229.479368 
z
" clip-path="url(#p77bd9a6b73)" style="fill: #34618f; opacity: 0.55; stroke: #ffffff; stroke-width: 0.2; stroke-linejoin: miter"/>
   </g>
   <g id="patch_56">
    <path d="M 283.346563 236.35975 
L 287.531563 236.35975 
L 287.531563 232.329812 
L 283.346563 232.329812 
z
" clip-path="url(#p77bd9a6b73)" style="fill: #34618f; opacity: 0.55; stroke: #ffffff; stroke-width: 0.2; stroke-linejoin: miter"/>
   </g>
   <g id="patch_57">
    <path d="M 287.531563 236.35975 
L 291.716563 236.35975 
L 291.716563 233.411015 
L 287.531563 233.411015 
z
" clip-path="url(#p77bd9a6b73)" style="fill: #34618f; opacity: 0.55; stroke: #ffffff; stroke-width: 0.2; stroke-linejoin: miter"/>
   </g>
   <g id="patch_58">
    <path d="M 291.716563 236.35975 
L 295.901563 236.35975 
L 295.901563 234.295635 
L 291.716563 234.295635 
z
" clip-path="url(#p77bd9a6b73)" style="fill: #34618f; opacity: 0.55; stroke: #ffffff; stroke-width: 0.2; stroke-linejoin: miter"/>
   </g>
   <g id="patch_59">
    <path d="M 295.901563 236.35975 
L 300.086563 236.35975 
L 300.086563 234.393927 
L 295.901563 234.393927 
z
" clip-path="url(#p77bd9a6b73)" style="fill: #34618f; opacity: 0.55; stroke: #ffffff; stroke-width: 0.2; stroke-linejoin: miter"/>
   </g>
   <g id="patch_60">
    <path d="M 300.086563 236.35975 
L 304.271563 236.35975 
L 304.271563 235.278547 
L 300.086563 235.278547 
z
" clip-path="url(#p77bd9a6b73)" style="fill: #34618f; opacity: 0.55; stroke: #ffffff; stroke-width: 0.2; stroke-linejoin: miter"/>
   </g>
   <g id="patch_61">
    <path d="M 304.271563 236.35975 
L 308.456563 236.35975 
L 308.456563 235.770003 
L 304.271563 235.770003 
z
" clip-path="url(#p77bd9a6b73)" style="fill: #34618f; opacity: 0.55; stroke: #ffffff; stroke-width: 0.2; stroke-linejoin: miter"/>
   </g>
   <g id="patch_62">
    <path d="M 308.456563 236.35975 
L 312.641563 236.35975 
L 312.641563 235.868294 
L 308.456563 235.868294 
z
" clip-path="url(#p77bd9a6b73)" style="fill: #34618f; opacity: 0.55; stroke: #ffffff; stroke-width: 0.2; stroke-linejoin: miter"/>
   </g>
   <g id="patch_63">
    <path d="M 312.641563 236.35975 
L 316.826563 236.35975 
L 316.826563 236.064876 
L 312.641563 236.064876 
z
" clip-path="url(#p77bd9a6b73)" style="fill: #34618f; opacity: 0.55; stroke: #ffffff; stroke-width: 0.2; stroke-linejoin: miter"/>
   </g>
   <g id="patch_64">
    <path d="M 316.826563 236.35975 
L 321.011563 236.35975 
L 321.011563 236.261459 
L 316.826563 236.261459 
z
" clip-path="url(#p77bd9a6b73)" style="fill: #34618f; opacity: 0.55; stroke: #ffffff; stroke-width: 0.2; stroke-linejoin: miter"/>
   </g>
   <g id="patch_65">
    <path d="M 321.011563 236.35975 
L 325.196563 236.35975 
L 325.196563 236.261459 
L 321.011563 236.261459 
z
" clip-path="url(#p77bd9a6b73)" style="fill: #34618f; opacity: 0.55; stroke: #ffffff; stroke-width: 0.2; stroke-linejoin: miter"/>
   </g>
   <g id="patch_66">
    <path d="M 325.196563 236.35975 
L 329.381563 236.35975 
L 329.381563 236.261459 
L 325.196563 236.261459 
z
" clip-path="url(#p77bd9a6b73)" style="fill: #34618f; opacity: 0.55; stroke: #ffffff; stroke-width: 0.2; stroke-linejoin: miter"/>
   </g>
   <g id="patch_67">
    <path d="M 329.381563 236.35975 
L 333.566563 236.35975 
L 333.566563 236.163168 
L 329.381563 236.163168 
z
" clip-path="url(#p77bd9a6b73)" style="fill: #34618f; opacity: 0.55; stroke: #ffffff; stroke-width: 0.2; stroke-linejoin: miter"/>
   </g>
   <g id="patch_68">
    <path d="M 333.566563 236.35975 
L 337.751563 236.35975 
L 337.751563 236.163168 
L 333.566563 236.163168 
z
" clip-path="url(#p77bd9a6b73)" style="fill: #34618f; opacity: 0.55; stroke: #ffffff; stroke-width: 0.2; stroke-linejoin: miter"/>
   </g>
   <g id="patch_69">
    <path d="M 337.751563 236.35975 
L 341.936563 236.35975 
L 341.936563 236.35975 
L 337.751563 236.35975 
z
" clip-path="url(#p77bd9a6b73)" style="fill: #34618f; opacity: 0.55; stroke: #ffffff; stroke-width: 0.2; stroke-linejoin: miter"/>
   </g>
   <g id="patch_70">
    <path d="M 341.936563 236.35975 
L 346.121563 236.35975 
L 346.121563 236.35975 
L 341.936563 236.35975 
z
" clip-path="url(#p77bd9a6b73)" style="fill: #34618f; opacity: 0.55; stroke: #ffffff; stroke-width: 0.2; stroke-linejoin: miter"/>
   </g>
   <g id="patch_71">
    <path d="M 346.121563 236.35975 
L 350.306563 236.35975 
L 350.306563 236.163168 
L 346.121563 236.163168 
z
" clip-path="url(#p77bd9a6b73)" style="fill: #34618f; opacity: 0.55; stroke: #ffffff; stroke-width: 0.2; stroke-linejoin: miter"/>
   </g>
   <g id="patch_72">
    <path d="M 350.306563 236.35975 
L 354.491563 236.35975 
L 354.491563 236.35975 
L 350.306563 236.35975 
z
" clip-path="url(#p77bd9a6b73)" style="fill: #34618f; opacity: 0.55; stroke: #ffffff; stroke-width: 0.2; stroke-linejoin: miter"/>
   </g>
   <g id="patch_73">
    <path d="M 354.491563 236.35975 
L 358.676563 236.35975 
L 358.676563 236.163168 
L 354.491563 236.163168 
z
" clip-path="url(#p77bd9a6b73)" style="fill: #34618f; opacity: 0.55; stroke: #ffffff; stroke-width: 0.2; stroke-linejoin: miter"/>
   </g>
   <g id="patch_74">
    <path d="M 358.676563 236.35975 
L 362.861563 236.35975 
L 362.861563 236.163168 
L 358.676563 236.163168 
z
" clip-path="url(#p77bd9a6b73)" style="fill: #34618f; opacity: 0.55; stroke: #ffffff; stroke-width: 0.2; stroke-linejoin: miter"/>
   </g>
   <g id="patch_75">
    <path d="M 362.861563 236.35975 
L 367.046563 236.35975 
L 367.046563 236.35975 
L 362.861563 236.35975 
z
" clip-path="url(#p77bd9a6b73)" style="fill: #34618f; opacity: 0.55; stroke: #ffffff; stroke-width: 0.2; stroke-linejoin: miter"/>
   </g>
   <g id="patch_76">
    <path d="M 367.046563 236.35975 
L 371.231563 236.35975 
L 371.231563 236.35975 
L 367.046563 236.35975 
z
" clip-path="url(#p77bd9a6b73)" style="fill: #34618f; opacity: 0.55; stroke: #ffffff; stroke-width: 0.2; stroke-linejoin: miter"/>
   </g>
   <g id="patch_77">
    <path d="M 371.231563 236.35975 
L 375.416563 236.35975 
L 375.416563 236.35975 
L 371.231563 236.35975 
z
" clip-path="url(#p77bd9a6b73)" style="fill: #34618f; opacity: 0.55; stroke: #ffffff; stroke-width: 0.2; stroke-linejoin: miter"/>
   </g>
   <g id="patch_78">
    <path d="M 375.416563 236.35975 
L 379.601563 236.35975 
L 379.601563 236.35975 
L 375.416563 236.35975 
z
" clip-path="url(#p77bd9a6b73)" style="fill: #34618f; opacity: 0.55; stroke: #ffffff; stroke-width: 0.2; stroke-linejoin: miter"/>
   </g>
   <g id="patch_79">
    <path d="M 379.601562 236.35975 
L 383.786563 236.35975 
L 383.786563 236.35975 
L 379.601562 236.35975 
z
" clip-path="url(#p77bd9a6b73)" style="fill: #34618f; opacity: 0.55; stroke: #ffffff; stroke-width: 0.2; stroke-linejoin: miter"/>
   </g>
   <g id="patch_80">
    <path d="M 383.786563 236.35975 
L 387.971563 236.35975 
L 387.971563 236.35975 
L 383.786563 236.35975 
z
" clip-path="url(#p77bd9a6b73)" style="fill: #34618f; opacity: 0.55; stroke: #ffffff; stroke-width: 0.2; stroke-linejoin: miter"/>
   </g>
   <g id="patch_81">
    <path d="M 387.971563 236.35975 
L 392.156563 236.35975 
L 392.156563 236.35975 
L 387.971563 236.35975 
z
" clip-path="url(#p77bd9a6b73)" style="fill: #34618f; opacity: 0.55; stroke: #ffffff; stroke-width: 0.2; stroke-linejoin: miter"/>
   </g>
   <g id="patch_82">
    <path d="M 392.156563 236.35975 
L 396.341563 236.35975 
L 396.341563 236.261459 
L 392.156563 236.261459 
z
" clip-path="url(#p77bd9a6b73)" style="fill: #34618f; opacity: 0.55; stroke: #ffffff; stroke-width: 0.2; stroke-linejoin: miter"/>
   </g>
   <g id="patch_83">
    <path d="M 149.640957 236.35975 
L 259.945202 236.35975 
L 259.945202 20.14375 
L 149.640957 20.14375 
z
" clip-path="url(#p77bd9a6b73)" style="fill: #34618f; opacity: 0.12; stroke: #34618f; stroke-linejoin: miter"/>
   </g>
   <g id="matplotlib.axis_1">
    <g id="xtick_1">
     <g id="line2d_1">
      <defs>
       <path id="m737bbdc87e" d="M 0 0 
L 0 3.5 
" style="stroke: #000000; stroke-width: 0.8"/>
      </defs>
      <g>
       <use xlink:href="#m737bbdc87e" x="45.977101" y="236.35975" style="stroke: #000000; stroke-width: 0.8"/>
      </g>
     </g>
     <g id="text_1">
      <text style="font-size: 10px; font-family: 'Times New Roman', 'DejaVu Serif', serif; text-anchor: middle" x="45.977101" y="250.3035" transform="rotate(-0 45.977101 250.3035)">−20</text>
     </g>
    </g>
    <g id="xtick_2">
     <g id="line2d_2">
      <g>
       <use xlink:href="#m737bbdc87e" x="119.759205" y="236.35975" style="stroke: #000000; stroke-width: 0.8"/>
      </g>
     </g>
     <g id="text_2">
      <text style="font-size: 10px; font-family: 'Times New Roman', 'DejaVu Serif', serif; text-anchor: middle" x="119.759205" y="250.3035" transform="rotate(-0 119.759205 250.3035)">0</text>
     </g>
    </g>
    <g id="xtick_3">
     <g id="line2d_3">
      <g>
       <use xlink:href="#m737bbdc87e" x="193.541308" y="236.35975" style="stroke: #000000; stroke-width: 0.8"/>
      </g>
     </g>
     <g id="text_3">
      <text style="font-size: 10px; font-family: 'Times New Roman', 'DejaVu Serif', serif; text-anchor: middle" x="193.541308" y="250.3035" transform="rotate(-0 193.541308 250.3035)">20</text>
     </g>
    </g>
    <g id="xtick_4">
     <g id="line2d_4">
      <g>
       <use xlink:href="#m737bbdc87e" x="267.323412" y="236.35975" style="stroke: #000000; stroke-width: 0.8"/>
      </g>
     </g>
     <g id="text_4">
      <text style="font-size: 10px; font-family: 'Times New Roman', 'DejaVu Serif', serif; text-anchor: middle" x="267.323412" y="250.3035" transform="rotate(-0 267.323412 250.3035)">40</text>
     </g>
    </g>
    <g id="xtick_5">
     <g id="line2d_5">
      <g>
       <use xlink:href="#m737bbdc87e" x="341.105516" y="236.35975" style="stroke: #000000; stroke-width: 0.8"/>
      </g>
     </g>
     <g id="text_5">
      <text style="font-size: 10px; font-family: 'Times New Roman', 'DejaVu Serif', serif; text-anchor: middle" x="341.105516" y="250.3035" transform="rotate(-0 341.105516 250.3035)">60</text>
     </g>
    </g>
    <g id="text_6">
     <text style="font-size: 10px; font-family: 'Times New Roman', 'DejaVu Serif', serif; text-anchor: middle" x="228.941563" y="263.386312" transform="rotate(-0 228.941563 263.386312)">fitted upward drift of the data-centre forecast (% per vintage)</text>
    </g>
   </g>
   <g id="matplotlib.axis_2">
    <g id="ytick_1">
     <g id="line2d_6">
      <defs>
       <path id="m96a2e5e454" d="M 0 0 
L -3.5 0 
" style="stroke: #000000; stroke-width: 0.8"/>
      </defs>
      <g>
       <use xlink:href="#m96a2e5e454" x="44.801563" y="236.35975" style="stroke: #000000; stroke-width: 0.8"/>
      </g>
     </g>
     <g id="text_7">
      <text style="font-size: 10px; font-family: 'Times New Roman', 'DejaVu Serif', serif; text-anchor: end" x="37.801563" y="239.831625" transform="rotate(-0 37.801563 239.831625)">0.00</text>
     </g>
    </g>
    <g id="ytick_2">
     <g id="line2d_7">
      <g>
       <use xlink:href="#m96a2e5e454" x="44.801563" y="200.678595" style="stroke: #000000; stroke-width: 0.8"/>
      </g>
     </g>
     <g id="text_8">
      <text style="font-size: 10px; font-family: 'Times New Roman', 'DejaVu Serif', serif; text-anchor: end" x="37.801563" y="204.15047" transform="rotate(-0 37.801563 204.15047)">0.01</text>
     </g>
    </g>
    <g id="ytick_3">
     <g id="line2d_8">
      <g>
       <use xlink:href="#m96a2e5e454" x="44.801563" y="164.99744" style="stroke: #000000; stroke-width: 0.8"/>
      </g>
     </g>
     <g id="text_9">
      <text style="font-size: 10px; font-family: 'Times New Roman', 'DejaVu Serif', serif; text-anchor: end" x="37.801563" y="168.469315" transform="rotate(-0 37.801563 168.469315)">0.02</text>
     </g>
    </g>
    <g id="ytick_4">
     <g id="line2d_9">
      <g>
       <use xlink:href="#m96a2e5e454" x="44.801563" y="129.316285" style="stroke: #000000; stroke-width: 0.8"/>
      </g>
     </g>
     <g id="text_10">
      <text style="font-size: 10px; font-family: 'Times New Roman', 'DejaVu Serif', serif; text-anchor: end" x="37.801563" y="132.78816" transform="rotate(-0 37.801563 132.78816)">0.03</text>
     </g>
    </g>
    <g id="ytick_5">
     <g id="line2d_10">
      <g>
       <use xlink:href="#m96a2e5e454" x="44.801563" y="93.635129" style="stroke: #000000; stroke-width: 0.8"/>
      </g>
     </g>
     <g id="text_11">
      <text style="font-size: 10px; font-family: 'Times New Roman', 'DejaVu Serif', serif; text-anchor: end" x="37.801563" y="97.107004" transform="rotate(-0 37.801563 97.107004)">0.04</text>
     </g>
    </g>
    <g id="ytick_6">
     <g id="line2d_11">
      <g>
       <use xlink:href="#m96a2e5e454" x="44.801563" y="57.953974" style="stroke: #000000; stroke-width: 0.8"/>
      </g>
     </g>
     <g id="text_12">
      <text style="font-size: 10px; font-family: 'Times New Roman', 'DejaVu Serif', serif; text-anchor: end" x="37.801563" y="61.425849" transform="rotate(-0 37.801563 61.425849)">0.05</text>
     </g>
    </g>
    <g id="ytick_7">
     <g id="line2d_12">
      <g>
       <use xlink:href="#m96a2e5e454" x="44.801563" y="22.272819" style="stroke: #000000; stroke-width: 0.8"/>
      </g>
     </g>
     <g id="text_13">
      <text style="font-size: 10px; font-family: 'Times New Roman', 'DejaVu Serif', serif; text-anchor: end" x="37.801563" y="25.744694" transform="rotate(-0 37.801563 25.744694)">0.06</text>
     </g>
    </g>
    <g id="text_14">
     <text style="font-size: 10px; font-family: 'Times New Roman', 'DejaVu Serif', serif; text-anchor: middle" x="14.14375" y="128.25175" transform="rotate(-90 14.14375 128.25175)">posterior density</text>
    </g>
   </g>
   <g id="line2d_13">
    <path d="M 203.501892 236.35975 
L 203.501892 20.14375 
" clip-path="url(#p77bd9a6b73)" style="fill: none; stroke: #222222; stroke-width: 1.6; stroke-linecap: square"/>
   </g>
   <g id="line2d_14">
    <path d="M 119.759205 236.35975 
L 119.759205 20.14375 
" clip-path="url(#p77bd9a6b73)" style="fill: none; stroke-dasharray: 4.44,1.92; stroke-dashoffset: 0; stroke: #b3402e; stroke-width: 1.2"/>
   </g>
   <g id="patch_84">
    <path d="M 44.801563 236.35975 
L 44.801563 20.14375 
" style="fill: none; stroke: #000000; stroke-width: 0.8; stroke-linejoin: miter; stroke-linecap: square"/>
   </g>
   <g id="patch_85">
    <path d="M 44.801563 236.35975 
L 413.081563 236.35975 
" style="fill: none; stroke: #000000; stroke-width: 0.8; stroke-linejoin: miter; stroke-linecap: square"/>
   </g>
   <g id="text_15">
    <text style="font-size: 10px; font-family: 'Times New Roman', 'DejaVu Serif', serif; text-anchor: start" x="44.801563" y="14.14375" transform="rotate(-0 44.801563 14.14375)">Bayesian ratchet: the forecast drifts up +23%/vintage (P=0.998)</text>
   </g>
   <g id="legend_1">
    <g id="patch_86">
     <path d="M 297.810313 32.94375 
L 313.810313 32.94375 
L 313.810313 27.34375 
L 297.810313 27.34375 
z
" style="fill: #34618f; opacity: 0.12; stroke: #34618f; stroke-linejoin: miter"/>
    </g>
    <g id="text_16">
     <text style="font-size: 8px; font-family: 'Times New Roman', 'DejaVu Serif', serif; text-anchor: start" x="320.210312" y="32.94375" transform="rotate(-0 320.210312 32.94375)">95% CrI [8, 38]%</text>
    </g>
    <g id="line2d_15">
     <path d="M 297.810313 41.455 
L 305.810313 41.455 
L 313.810313 41.455 
" style="fill: none; stroke: #222222; stroke-width: 1.6; stroke-linecap: square"/>
    </g>
    <g id="text_17">
     <text style="font-size: 8px; font-family: 'Times New Roman', 'DejaVu Serif', serif; text-anchor: start" x="320.210312" y="44.255" transform="rotate(-0 320.210312 44.255)">median 23%/vintage</text>
    </g>
    <g id="line2d_16">
     <path d="M 297.810313 52.78125 
L 305.810313 52.78125 
L 313.810313 52.78125 
" style="fill: none; stroke-dasharray: 4.44,1.92; stroke-dashoffset: 0; stroke: #b3402e; stroke-width: 1.2"/>
    </g>
    <g id="text_18">
     <text style="font-size: 8px; font-family: 'Times New Roman', 'DejaVu Serif', serif; text-anchor: start" x="320.210312" y="55.58125" transform="rotate(-0 320.210312 55.58125)">no drift (P[drift&gt;0]=0.998)</text>
    </g>
   </g>
  </g>
 </g>
 <defs>
  <clipPath id="p77bd9a6b73">
   <rect x="44.801563" y="20.14375" width="368.28" height="216.216"/>
  </clipPath>
 </defs>
</svg>
